<svg width="81" height="72" viewBox="0 0 81 72" fill="none" xmlns="http://www.w3.org/2000/svg">
<path d="M4 68L14.0558 57.8615C14.0558 57.8615 18.4249 53.4566 22.3519 49.4973M38.3155 33.4025C47.7895 23.8506 59.1814 4.0009 59.1814 4.0009C59.1814 4.0009 57.7987 3.62072 72.5054 18.4482C87.212 33.2757 62.5752 57.8615 45.3546 40.4994C28.134 23.1373 38.3155 33.4025 38.3155 33.4025ZM38.3155 33.4025C38.3155 33.4025 41.458 36.5707 32.1563 27.1926C22.8547 17.8146 3.37151 30.3609 16.1927 43.2875C29.0139 56.214 12.2961 39.3588 22.3519 49.4973M38.3155 33.4025C38.3155 33.4025 27.8989 43.9048 22.3519 49.4973" stroke="#D6D84F" stroke-width="7" stroke-linecap="round" stroke-linejoin="round"/>
</svg>
